<?xml version="1.0" ?><!DOCTYPE svg  PUBLIC '-//W3C//DTD SVG 1.1//EN'  'http://www.w3.org/Graphics/SVG/1.1/DTD/svg11.dtd'><svg enable-background="new 0 0 60 30" height="30px" id="Layer_1" version="1.1" viewBox="0 0 60 30" width="60px" xml:space="preserve" xmlns="http://www.w3.org/2000/svg" xmlns:xlink="http://www.w3.org/1999/xlink"><g><g><polygon points="56,10 53.44,10 56.641,14 50,14 50,16 56.639,16 53.44,20 56,20 60,14.999    "/><polygon points="4,20 6.562,20 3.36,16 10,16 10,14 3.36,14 6.562,10 4,10 0,15.001    "/><g><path d="M38.098,25.153C37.924,13.162,35.983,8,30.001,8c-5.982,0-7.924,5.162-8.098,17.153      C18.919,22.77,17.001,19.107,17.001,15c0-7.169,5.83-13,13-13c7.167,0,13,5.831,13,13C43,19.107,41.081,22.77,38.098,25.153       M29.981,19.989c-6.018,0-5.127-7.31-5.127-7.31s1.027-2.316,5.127-2.316c4.101,0,5.169,2.316,5.169,2.316      S35.997,19.989,29.981,19.989 M30.001,0c-8.271,0-15,6.729-15,15c0,8.271,6.729,15,15,15c8.271,0,15-6.729,15-15      C45,6.729,38.272,0,30.001,0"/></g></g></g></svg>