<?xml version="1.0" ?><!DOCTYPE svg  PUBLIC '-//W3C//DTD SVG 1.1//EN'  'http://www.w3.org/Graphics/SVG/1.1/DTD/svg11.dtd'><svg enable-background="new 0 0 128 128" height="128px" version="1.1" viewBox="0 0 128 128" width="128px" xml:space="preserve" xmlns="http://www.w3.org/2000/svg" xmlns:xlink="http://www.w3.org/1999/xlink"><g id="Layer_2"/><g id="Layer_1"><path d="   M48.176,67.634c0,0-6.044-8.745-1.889-23.158c4.17-14.466,18.879-22.38,26.951-24.059c-4.183,21.527,21.404,28.694,9.47,46.821" fill="none" stroke="#231F20" stroke-linecap="round" stroke-linejoin="round" stroke-miterlimit="10" stroke-width="5"/><path d="   M59.643,72.452c-1.144-4.641,0.273-11.832,5.729-14.629c1.059,9.005,7.867,13.822,7.867,13.822" fill="none" stroke="#231F20" stroke-linecap="round" stroke-linejoin="round" stroke-miterlimit="10" stroke-width="5"/><path d="   M65.573,75.212L41.914,64.907c-2.771-1.288-6.061-0.088-7.35,2.683l-3.268,7.021c-1.291,2.77-0.088,6.062,2.682,7.351l9.303,3.621" fill="none" stroke="#231F20" stroke-linecap="round" stroke-linejoin="round" stroke-miterlimit="10" stroke-width="5"/><path d="   M66.43,96.356l26.235,12.209c2.771,1.29,6.062,0.091,7.351-2.68l3.268-7.022c1.29-2.771,0.09-6.061-2.682-7.35l-12.311-5.729" fill="none" stroke="#231F20" stroke-linecap="round" stroke-linejoin="round" stroke-miterlimit="10" stroke-width="5"/><path d="   M98.294,75.087c1.29,2.771,0.088,6.062-2.682,7.351L57.453,99.89c0,0,0.983,3.652-1.734,4.931   c-2.718,1.279-5.304-1.712-5.304-1.712l-11.934,5.457c-2.771,1.29-6.062,0.091-7.351-2.68l-3.267-7.022   c-1.29-2.771-0.091-6.061,2.68-7.35l57.133-26.131c2.771-1.288,6.061-0.088,7.351,2.682L98.294,75.087z" fill="none" stroke="#231F20" stroke-linecap="round" stroke-linejoin="round" stroke-miterlimit="10" stroke-width="5"/></g></svg>